<svg xmlns="http://www.w3.org/2000/svg" viewBox="12 0 1520 889" role="img" aria-label="Lachapelle-sous-Chaux — vivre avec sérénité"><title>Lachapelle-sous-Chaux — vivre avec sérénité</title><g transform="translate(2 -0)"><path fill="#b7e3b0" d="M640,0 643,4 643,7 644,7 645,12 647,14 648,20 646,20 644,22 641,22 641,23 639,23 635,26 632,26 632,27 630,27 630,28 628,28 628,29 626,29 626,30 624,30 624,31 610,37 609,39 603,41 602,43 598,44 597,46 593,47 592,49 590,49 589,51 587,51 586,53 581,55 579,58 574,60 572,63 570,63 568,66 566,66 562,71 560,71 556,76 554,76 547,84 545,84 527,102 527,104 519,111 519,113 509,123 509,125 506,127 506,129 503,131 503,133 500,135 500,137 497,139 497,141 495,142 495,144 493,145 493,147 491,148 491,150 487,154 486,158 484,159 483,163 481,164 480,168 478,169 476,175 473,175 470,172 468,172 468,171 460,168 459,166 457,166 458,162 460,161 460,159 461,159 462,155 464,154 465,150 467,149 468,145 470,144 470,142 472,141 472,139 474,138 474,136 476,135 476,133 478,132 478,130 480,129 482,124 485,122 485,120 491,114 491,112 500,103 500,101 507,95 507,93 536,64 538,64 544,57 546,57 554,49 556,49 558,46 560,46 562,43 564,43 566,40 568,40 569,38 571,38 572,36 574,36 575,34 577,34 578,32 580,32 584,28 586,28 589,25 593,24 594,22 600,20 601,18 603,18 603,17 605,17 605,16 607,16 607,15 609,15 609,14 611,14 611,13 613,13 613,12 615,12 615,11 617,11 621,8 624,8 624,7 626,7 630,4 638,2 640,0ZM1065,477 1067,477 1070,480 1080,484 1084,488 1082,489 1082,491 1081,491 1080,495 1078,496 1076,502 1072,506 1071,510 1069,511 1069,513 1067,514 1067,516 1065,517 1065,519 1063,520 1061,525 1058,527 1058,529 1053,534 1053,536 1049,539 1049,541 1045,544 1045,546 1041,549 1041,551 1034,557 1034,559 1004,589 1002,589 997,595 995,595 991,600 989,600 986,604 984,604 978,610 973,612 971,615 969,615 968,617 966,617 962,621 958,622 954,626 950,627 949,629 943,631 942,633 940,633 940,634 938,634 938,635 936,635 936,636 934,636 934,637 932,637 932,638 930,638 930,639 928,639 928,640 926,640 926,641 924,641 924,642 922,642 922,643 920,643 916,646 913,646 909,649 906,649 904,651 899,652 898,646 896,644 896,641 895,641 894,636 893,636 892,633 895,632 895,631 898,631 902,628 905,628 905,627 907,627 907,626 909,626 909,625 911,625 915,622 918,622 918,621 922,620 923,618 925,618 925,617 935,613 936,611 940,610 941,608 945,607 946,605 948,605 949,603 951,603 952,601 954,601 955,599 957,599 958,597 963,595 965,592 967,592 973,586 975,586 984,577 986,577 993,569 995,569 1014,550 1014,548 1022,541 1022,539 1032,529 1032,527 1035,525 1035,523 1038,521 1038,519 1041,517 1043,512 1046,510 1046,508 1048,507 1048,505 1052,501 1053,497 1057,493 1057,491 1060,488 1060,486 1061,486 1063,480 1065,479 1065,477Z"/><path fill="#7fc576" d="M765,49 802,50 802,51 818,52 818,53 824,53 824,54 829,54 829,55 834,55 834,56 847,58 847,59 850,59 850,60 854,60 854,61 857,61 857,62 872,66 872,67 877,68 879,70 882,70 886,73 889,73 889,74 891,74 891,75 893,75 893,76 895,76 895,77 909,83 910,85 916,87 917,89 921,90 922,92 924,92 925,94 927,94 928,96 933,98 935,101 940,103 947,110 949,110 954,116 956,116 985,145 985,147 994,156 994,158 997,160 997,162 1003,168 1003,170 1005,171 1005,173 1007,174 1007,176 1011,180 1012,184 1016,188 1018,194 1020,195 1020,197 1021,197 1021,199 1022,199 1022,201 1025,205 1025,208 1026,208 1025,214 1020,219 1017,219 1017,220 1010,219 1006,215 1006,213 1004,212 1001,204 999,203 998,199 996,198 995,194 993,193 993,191 991,190 991,188 989,187 989,185 987,184 985,179 982,177 982,175 976,169 976,167 972,164 972,162 966,157 966,155 945,134 943,134 938,128 936,128 933,124 931,124 925,118 923,118 922,116 920,116 918,113 911,110 907,106 903,105 902,103 900,103 900,102 898,102 898,101 896,101 896,100 894,100 894,99 892,99 892,98 890,98 890,97 888,97 888,96 886,96 886,95 884,95 884,94 882,94 878,91 875,91 871,88 868,88 866,86 863,86 863,85 860,85 860,84 857,84 857,83 854,83 854,82 851,82 851,81 848,81 848,80 837,78 837,77 832,77 832,76 817,74 817,73 810,73 810,72 801,72 801,71 765,70 765,71 742,72 742,73 730,74 730,75 725,75 725,76 720,76 720,77 704,80 704,81 689,85 687,87 681,88 677,91 674,91 674,92 672,92 672,93 670,93 670,94 668,94 668,95 666,95 666,96 664,96 664,97 650,103 649,105 645,106 644,108 640,109 639,111 637,111 636,113 631,115 629,118 624,120 622,123 620,123 617,127 615,127 610,133 608,133 584,157 584,159 579,163 579,165 575,168 575,170 569,176 569,178 567,179 567,181 565,182 565,184 563,185 563,187 561,188 561,190 557,194 556,198 554,199 554,201 553,201 551,207 549,208 548,212 544,216 536,217 536,216 532,215 529,211 529,208 528,208 529,201 531,200 535,190 537,189 537,187 540,184 541,180 543,179 543,177 545,176 545,174 547,173 549,168 552,166 554,161 561,154 561,152 566,148 566,146 573,140 573,138 589,122 591,122 598,114 600,114 603,110 605,110 608,106 610,106 616,100 618,100 619,98 621,98 622,96 624,96 625,94 627,94 631,90 635,89 636,87 642,85 643,83 645,83 645,82 647,82 647,81 649,81 649,80 651,80 651,79 653,79 653,78 655,78 655,77 657,77 657,76 659,76 663,73 666,73 670,70 681,67 683,65 686,65 686,64 689,64 689,63 692,63 692,62 695,62 695,61 699,61 699,60 702,60 702,59 718,56 718,55 728,54 728,53 741,52 741,51 750,51 750,50 765,50 765,49ZM1014,427 1024,428 1027,431 1028,436 1029,436 1028,442 1025,445 1022,453 1020,454 1019,458 1017,459 1016,463 1014,464 1014,466 1012,467 1012,469 1010,470 1010,472 1008,473 1008,475 1006,476 1004,481 1001,483 1001,485 998,487 998,489 994,492 994,494 989,498 989,500 982,506 982,508 965,525 963,525 957,532 955,532 946,541 944,541 942,544 937,546 935,549 933,549 932,551 930,551 926,555 924,555 921,558 917,559 916,561 908,564 907,566 905,566 905,567 903,567 903,568 901,568 897,571 894,571 894,572 892,572 888,575 885,575 881,578 875,579 873,581 870,581 870,582 867,582 867,583 864,583 864,584 861,584 861,585 858,585 858,586 854,586 854,587 851,587 851,588 834,591 834,592 816,594 816,595 808,595 808,596 796,596 796,597 763,597 763,596 742,595 742,594 736,594 736,593 720,591 720,590 704,587 704,586 697,585 697,584 688,582 686,580 680,579 678,577 670,575 670,574 668,574 664,571 661,571 661,570 651,566 650,564 642,561 641,559 637,558 636,556 632,555 631,553 629,553 628,551 626,551 625,549 620,547 618,544 616,544 610,538 608,538 604,533 602,533 597,527 595,527 574,506 574,504 567,498 567,496 563,493 563,491 560,489 560,487 554,481 554,479 552,478 552,476 550,475 550,473 548,472 548,470 546,469 546,467 542,463 541,459 539,458 539,456 538,456 538,454 537,454 536,450 534,449 534,447 532,445 532,442 531,442 532,435 537,430 542,429 542,430 548,431 551,434 554,442 556,443 558,449 562,453 563,457 565,458 565,460 567,461 569,466 572,468 572,470 577,475 577,477 581,480 581,482 586,486 586,488 595,496 595,498 603,506 605,506 613,515 615,515 619,520 621,520 624,524 626,524 628,527 633,529 635,532 637,532 641,536 643,536 646,539 650,540 651,542 657,544 658,546 660,546 660,547 662,547 662,548 664,548 664,549 666,549 666,550 668,550 668,551 670,551 674,554 677,554 681,557 692,560 694,562 697,562 697,563 700,563 700,564 703,564 703,565 707,565 707,566 710,566 710,567 726,570 726,571 743,573 743,574 751,574 751,575 763,575 763,576 795,576 795,575 807,575 807,574 815,574 815,573 832,571 832,570 845,568 845,567 848,567 848,566 852,566 852,565 867,561 869,559 877,557 881,554 884,554 884,553 886,553 886,552 900,546 901,544 907,542 908,540 912,539 913,537 915,537 916,535 918,535 919,533 921,533 922,531 927,529 929,526 931,526 933,523 935,523 938,519 940,519 944,514 946,514 971,489 971,487 980,478 980,476 983,474 983,472 986,470 986,468 989,466 989,464 991,463 991,461 993,460 993,458 997,454 997,452 1000,449 1001,445 1003,444 1005,438 1007,437 1009,431 1014,427Z"/></g><g transform="translate(0 470)"><path fill="#ffffff" d="M186,252 201,252 201,253 210,254 212,256 215,256 215,257 223,260 224,263 225,263 225,266 224,266 223,269 218,270 218,269 216,269 214,267 211,267 209,265 191,263 191,264 184,264 184,265 181,265 181,266 173,269 167,275 167,277 165,278 163,286 162,286 162,290 161,290 162,309 163,309 163,312 164,312 166,318 174,326 176,326 180,329 183,329 183,330 202,331 202,330 210,329 210,328 212,328 216,325 223,325 224,328 225,328 224,333 222,335 220,335 216,338 213,338 211,340 208,340 208,341 184,342 184,341 180,341 180,340 177,340 177,339 174,339 174,338 168,336 166,333 164,333 158,327 158,325 156,324 156,322 155,322 155,320 152,316 151,309 150,309 149,291 150,291 151,281 152,281 152,278 153,278 155,272 160,267 160,265 162,263 164,263 167,259 169,259 169,258 171,258 175,255 178,255 178,254 181,254 181,253 186,253 186,252ZM802,252 824,253 824,254 832,255 832,256 837,258 837,265 834,266 834,267 824,265 824,264 818,264 818,263 803,263 803,264 796,265 788,273 788,280 789,280 789,283 792,286 794,286 798,289 801,289 801,290 805,290 805,291 809,291 809,292 813,292 813,293 817,293 817,294 826,296 826,297 832,299 838,305 838,307 840,309 841,323 840,323 840,326 839,326 838,330 831,337 829,337 825,340 822,340 822,341 818,341 818,342 797,342 797,341 792,341 792,340 788,340 788,339 785,339 785,338 782,338 782,337 778,336 775,332 776,328 780,325 784,326 784,327 787,327 787,328 790,328 790,329 793,329 793,330 816,331 816,330 820,330 820,329 824,328 829,322 829,313 825,309 823,309 819,306 815,306 815,305 812,305 812,304 804,303 804,302 789,298 788,296 783,294 777,286 776,274 777,274 777,270 778,270 780,264 786,258 788,258 789,256 797,254 797,253 802,253 802,252ZM881,252 900,253 900,254 906,255 906,256 912,258 913,260 915,260 923,268 923,270 925,271 925,273 926,273 926,275 929,279 930,286 931,286 931,293 932,293 931,308 930,308 929,315 928,315 927,320 925,321 924,325 920,328 920,330 918,332 916,332 911,337 909,337 907,339 904,339 904,340 901,340 901,341 897,341 897,342 878,342 878,341 874,341 874,340 871,340 871,339 868,339 868,338 864,337 852,326 852,324 850,323 850,321 847,317 845,307 844,307 844,298 843,298 844,297 844,287 845,287 845,283 846,283 846,280 847,280 847,277 848,277 850,271 863,258 865,258 869,255 872,255 872,254 875,254 875,253 881,253 881,252ZM1047,252 1063,252 1063,253 1074,254 1074,255 1080,256 1083,260 1082,265 1079,266 1079,267 1069,265 1069,264 1063,264 1063,263 1044,264 1044,265 1038,267 1035,270 1034,275 1033,275 1034,282 1039,287 1041,287 1043,289 1046,289 1046,290 1050,290 1050,291 1054,291 1054,292 1058,292 1058,293 1062,293 1062,294 1074,297 1085,308 1085,311 1086,311 1086,324 1085,324 1084,329 1076,337 1074,337 1070,340 1067,340 1067,341 1063,341 1063,342 1037,341 1037,340 1027,338 1027,337 1025,337 1021,334 1021,328 1023,326 1030,326 1032,328 1039,329 1039,330 1044,330 1044,331 1061,331 1061,330 1068,329 1074,323 1075,315 1074,315 1072,310 1070,310 1067,307 1061,306 1061,305 1057,305 1057,304 1053,304 1053,303 1050,303 1050,302 1046,302 1046,301 1037,299 1037,298 1031,296 1024,289 1024,287 1022,285 1022,279 1021,279 1022,271 1023,271 1023,268 1026,265 1026,263 1031,258 1033,258 1033,257 1035,257 1039,254 1047,253 1047,252ZM1168,252 1182,252 1182,253 1187,253 1187,254 1194,255 1194,256 1199,257 1202,260 1204,260 1205,263 1206,263 1206,267 1202,270 1199,270 1199,269 1197,269 1195,267 1192,267 1190,265 1172,263 1172,264 1165,264 1165,265 1162,265 1162,266 1156,268 1155,270 1153,270 1149,274 1149,276 1147,277 1147,279 1144,283 1143,293 1142,293 1143,308 1144,308 1144,311 1145,311 1148,319 1154,325 1156,325 1157,327 1159,327 1161,329 1164,329 1164,330 1183,331 1183,330 1191,329 1191,328 1196,327 1198,325 1204,325 1205,328 1206,328 1206,332 1203,335 1201,335 1201,336 1199,336 1195,339 1189,340 1189,341 1165,342 1165,341 1161,341 1161,340 1158,340 1158,339 1155,339 1155,338 1151,337 1146,332 1144,332 1141,329 1141,327 1138,325 1138,323 1136,322 1136,320 1134,318 1132,308 1131,308 1131,300 1130,300 1131,286 1132,286 1132,282 1133,282 1133,279 1134,279 1137,271 1150,258 1152,258 1156,255 1159,255 1159,254 1162,254 1162,253 1168,253 1168,252ZM15,253 21,253 24,257 24,329 66,329 66,330 69,330 69,327 72,323 72,320 75,316 75,313 78,309 80,301 83,297 83,294 86,290 86,287 89,283 89,280 91,278 91,275 94,271 94,268 97,264 97,261 98,261 100,255 103,254 103,253 111,253 111,254 114,255 114,257 117,261 117,264 120,268 122,276 123,276 123,278 125,280 125,283 128,287 128,290 131,294 133,302 134,302 134,304 136,306 136,309 139,313 139,316 142,320 142,323 143,323 144,328 145,328 145,330 147,332 147,335 148,335 147,339 143,342 140,342 136,339 136,336 133,332 133,329 132,329 131,324 130,324 128,319 85,319 85,322 84,322 83,327 80,331 78,339 74,342 71,342 69,340 67,340 67,341 17,341 17,340 15,340 13,338 13,335 12,335 12,257 15,253ZM235,253 241,253 244,257 244,292 291,292 291,256 294,253 300,253 302,255 302,258 303,258 303,337 300,341 295,342 291,339 291,303 244,303 244,338 239,342 236,342 236,341 233,340 233,338 232,338 232,256 235,253ZM348,253 356,253 360,257 360,260 363,264 363,267 366,271 366,274 369,278 369,281 372,285 374,293 377,297 377,300 380,304 380,307 383,311 385,319 386,319 386,321 388,323 388,326 389,326 389,328 391,330 391,333 392,333 392,339 388,342 385,342 381,339 380,334 377,330 377,327 376,327 375,322 374,322 373,319 330,319 329,324 327,326 327,329 324,333 324,336 323,336 322,340 316,342 316,341 313,341 312,338 311,338 311,334 312,334 313,329 316,325 316,322 317,322 318,317 321,313 321,310 324,306 324,303 327,299 327,296 330,292 330,289 331,289 332,284 335,280 335,277 338,273 338,270 341,266 343,258 348,253ZM405,253 440,253 440,254 447,254 447,255 450,255 450,256 453,256 453,257 457,258 458,260 460,260 464,264 464,266 467,269 468,276 469,276 469,286 468,286 468,290 467,290 467,293 466,293 465,297 458,304 456,304 452,307 445,308 445,309 413,309 413,338 410,340 410,341 412,341 412,343 411,343 409,351 406,355 406,358 404,360 404,363 402,365 402,368 400,370 400,373 398,375 396,383 393,387 393,390 391,392 391,395 389,397 389,400 387,402 385,410 384,410 384,412 382,414 382,417 380,419 380,417 377,413 377,410 375,408 375,405 373,403 373,400 371,398 371,395 369,393 369,390 367,388 367,385 366,385 366,383 364,381 364,378 362,376 362,373 360,371 360,368 358,366 358,363 356,361 356,358 355,358 355,356 353,354 353,351 351,349 351,346 349,344 349,341 355,341 355,343 357,345 357,348 358,348 359,353 361,355 362,361 364,363 364,366 366,368 366,371 368,373 368,376 369,376 370,381 372,383 372,386 374,388 375,394 376,394 377,399 379,401 379,404 381,406 381,404 383,402 383,399 385,397 385,394 387,392 388,386 390,384 390,381 392,379 392,376 394,374 395,368 396,368 397,363 399,361 400,355 401,355 402,350 404,348 404,345 406,343 401,338 401,257 405,253ZM480,253 533,253 537,256 537,262 535,264 487,264 487,292 530,292 533,296 532,301 528,302 528,303 487,303 487,330 534,330 537,333 536,340 534,340 534,341 479,341 476,338 476,256 480,253ZM549,253 555,253 558,257 558,329 600,329 604,332 604,335 605,335 603,340 601,340 601,341 551,341 547,338 547,335 546,335 546,256 549,253ZM612,253 618,253 620,255 620,258 621,258 621,329 663,329 667,332 667,338 664,341 614,341 610,338 610,336 609,336 609,256 612,253ZM676,253 729,253 729,254 732,255 733,261 730,264 683,264 683,292 726,292 728,294 728,297 729,297 728,300 724,303 683,303 683,330 730,330 733,333 733,338 730,341 675,341 675,340 672,339 672,336 671,336 671,258 676,253ZM943,253 949,253 952,256 952,313 953,313 953,317 954,317 955,321 957,322 957,324 959,326 961,326 962,328 964,328 966,330 969,330 969,331 984,331 984,330 987,330 987,329 991,328 992,326 994,326 996,324 996,322 998,321 998,319 1000,317 1000,312 1001,312 1001,256 1004,253 1010,253 1012,255 1012,258 1013,258 1013,311 1012,311 1012,317 1011,317 1011,321 1010,321 1008,327 1005,329 1005,331 1003,333 1001,333 999,336 997,336 996,338 988,340 988,341 984,341 984,342 968,342 968,341 965,341 965,340 962,340 962,339 959,339 959,338 955,337 945,327 945,325 942,321 941,312 940,312 940,257 943,253ZM1216,253 1222,253 1225,256 1225,292 1272,292 1272,256 1275,253 1281,253 1283,255 1283,257 1284,257 1284,338 1283,338 1283,340 1277,342 1277,341 1274,341 1273,338 1272,338 1272,303 1225,303 1225,338 1221,342 1218,342 1214,339 1214,337 1213,337 1213,257 1216,253ZM1329,253 1339,254 1342,261 1343,261 1343,264 1346,268 1346,271 1349,275 1349,278 1352,282 1354,290 1357,294 1357,297 1360,301 1360,304 1363,308 1365,316 1368,320 1368,323 1369,323 1369,325 1371,327 1371,330 1373,332 1373,335 1374,335 1373,339 1369,342 1366,342 1362,339 1362,336 1361,336 1360,331 1357,327 1355,319 1312,319 1310,324 1309,324 1309,327 1307,329 1307,332 1304,336 1304,339 1302,341 1297,342 1292,337 1293,332 1294,332 1294,330 1296,328 1296,325 1299,321 1299,318 1301,316 1301,313 1302,313 1302,311 1304,309 1304,306 1307,302 1307,299 1310,295 1312,287 1315,283 1315,280 1316,280 1316,278 1318,276 1318,273 1321,269 1321,266 1324,262 1324,259 1329,253ZM1382,253 1388,253 1391,256 1391,314 1392,314 1392,317 1393,317 1395,323 1399,327 1401,327 1405,330 1408,330 1408,331 1423,331 1423,330 1426,330 1426,329 1430,328 1431,326 1433,326 1434,323 1437,321 1437,319 1439,317 1439,312 1440,312 1440,256 1443,253 1449,253 1451,255 1451,258 1452,258 1452,309 1451,309 1451,317 1450,317 1450,320 1449,320 1449,323 1448,323 1447,327 1443,330 1442,333 1440,333 1435,338 1427,340 1427,341 1423,341 1423,342 1407,342 1407,341 1403,341 1401,339 1398,339 1398,338 1394,337 1384,327 1384,325 1381,321 1381,318 1380,318 1380,313 1379,313 1379,257 1382,253ZM1462,253 1468,253 1471,256 1471,258 1475,261 1475,263 1478,265 1478,267 1482,270 1482,272 1486,275 1486,277 1489,279 1489,281 1493,284 1493,286 1495,288 1499,285 1499,283 1503,280 1503,278 1507,275 1507,273 1510,271 1510,269 1514,266 1514,264 1517,262 1517,260 1521,257 1521,255 1523,253 1529,253 1532,256 1531,262 1528,264 1528,266 1524,269 1524,271 1520,274 1520,276 1515,280 1515,282 1511,285 1511,287 1507,290 1507,292 1502,297 1506,301 1506,303 1511,307 1511,309 1515,312 1515,314 1519,317 1519,319 1524,323 1524,325 1528,328 1528,330 1532,333 1532,338 1531,338 1530,341 1525,342 1519,337 1519,335 1515,332 1515,330 1511,327 1511,325 1507,322 1507,320 1499,312 1499,310 1496,308 1496,306 1494,306 1494,308 1490,311 1490,313 1483,320 1483,322 1476,329 1476,331 1472,334 1472,336 1469,338 1469,340 1463,342 1459,339 1459,333 1466,326 1466,324 1471,320 1471,318 1475,315 1475,313 1479,310 1479,308 1484,304 1484,302 1488,299 1488,296 1486,295 1486,293 1482,290 1482,288 1478,285 1478,283 1473,279 1473,277 1469,274 1469,272 1465,269 1465,267 1459,261 1459,256 1462,253ZM883,263 882,264 877,264 877,265 874,265 874,266 870,267 860,277 860,279 858,281 858,284 857,284 857,287 856,287 856,293 855,293 856,307 857,307 857,311 858,311 861,319 868,326 870,326 870,327 872,327 876,330 880,330 880,331 895,331 895,330 899,330 899,329 902,329 905,326 907,326 914,319 914,317 916,316 918,308 919,308 919,304 920,304 920,291 919,291 919,286 918,286 918,283 917,283 914,275 908,269 906,269 905,267 903,267 901,265 898,265 898,264 883,263ZM414,265 413,265 413,298 442,298 442,297 449,296 456,289 457,276 451,268 449,268 447,266 444,266 444,265 414,265ZM107,269 105,271 105,274 103,276 101,284 98,288 96,296 93,300 91,308 123,308 121,300 118,296 116,288 113,284 113,281 112,281 111,276 110,276 110,274 108,272 108,269 107,269ZM352,269 349,273 349,276 347,278 347,281 344,285 344,288 342,290 342,293 339,297 339,300 338,300 337,305 336,305 335,308 368,308 367,303 364,299 364,296 362,294 362,291 359,287 359,284 357,282 357,279 356,279 355,274 354,274 352,269ZM1333,269 1332,269 1332,272 1329,276 1329,279 1327,281 1325,289 1322,293 1320,301 1317,305 1317,308 1350,308 1348,303 1347,303 1347,300 1345,298 1345,295 1342,291 1340,283 1337,279 1335,271 1333,269ZM743,300 768,300 772,303 773,306 772,306 772,309 770,311 741,311 739,309 738,305 739,305 739,302 743,301 743,300ZM1095,300 1120,300 1120,301 1124,302 1125,307 1122,311 1093,311 1091,309 1091,303 1095,300ZM904,352 910,352 910,354 906,357 906,359 902,362 902,364 900,366 896,366 897,363 899,362 899,360 901,359 902,355 904,354 904,352ZM990,352 996,352 996,353 989,360 989,362 986,364 986,366 981,366 990,352ZM1153,352 1159,352 1159,353 1155,356 1155,358 1151,361 1151,363 1148,366 1144,366 1153,352ZM423,356 428,356 429,357 429,362 428,363 423,363 422,362 422,357 423,356ZM1076,356 1081,356 1082,357 1082,362 1081,363 1076,363 1075,362 1075,357 1076,356ZM1104,356 1109,357 1109,375 1122,375 1122,379 1109,379 1109,416 1104,416 1103,415 1103,379 1095,379 1095,375 1103,375 1103,357 1104,356ZM514,373 516,373 516,379 510,379 510,380 506,381 500,388 500,392 499,392 499,416 494,416 494,374 499,375 499,383 500,383 500,381 504,377 506,377 510,374 514,374 514,373ZM542,373 551,373 551,374 554,374 554,375 558,376 563,381 563,383 566,387 565,390 559,391 559,392 554,393 552,395 549,395 547,397 544,397 544,398 541,398 541,399 536,400 534,402 531,402 532,405 537,410 542,411 542,412 551,412 551,411 559,408 561,410 561,412 556,414 556,415 550,416 550,417 543,417 543,416 539,416 539,415 534,414 532,411 529,410 529,408 527,407 527,405 525,403 525,399 524,399 524,392 525,392 525,388 526,388 527,383 534,376 536,376 538,374 542,374 542,373ZM626,373 637,374 637,375 641,376 646,382 647,382 647,375 652,374 652,416 647,416 647,408 642,413 640,413 639,415 632,416 632,417 625,417 625,416 621,416 621,415 617,414 610,407 610,404 608,402 608,388 609,388 611,382 617,376 622,375 622,374 626,374 626,373ZM731,373 740,373 740,374 746,375 753,382 753,384 755,386 754,390 751,390 749,392 746,392 744,394 738,395 736,397 733,397 731,399 728,399 726,401 721,402 722,406 725,409 727,409 731,412 740,412 740,411 745,410 746,408 749,408 749,410 750,410 749,413 747,413 743,416 739,416 739,417 732,417 732,416 725,415 724,413 722,413 717,408 717,406 714,402 714,389 715,389 716,384 718,383 718,381 722,377 724,377 725,375 731,374 731,373ZM785,373 794,374 794,375 800,377 801,379 799,380 799,382 797,382 796,380 791,379 791,378 782,378 782,379 778,380 777,382 774,383 774,385 771,388 770,399 771,399 771,402 774,405 774,407 776,409 782,411 782,412 792,412 796,409 799,409 801,411 799,414 794,415 794,416 790,416 790,417 783,417 783,416 779,416 779,415 773,413 768,408 768,406 766,404 766,401 765,401 765,389 766,389 766,386 769,383 769,381 772,378 774,378 775,376 780,375 780,374 785,374 785,373ZM855,373 866,375 869,378 869,380 867,382 864,379 861,379 861,378 854,378 849,383 850,388 852,390 866,395 870,399 870,402 871,402 870,410 868,411 868,413 863,415 863,416 860,416 860,417 849,416 849,415 847,415 843,412 844,408 846,408 847,410 849,410 851,412 861,412 865,409 864,400 862,400 861,398 855,397 853,395 850,395 849,393 846,392 846,390 844,388 845,379 849,375 855,374 855,373ZM899,373 908,373 908,374 911,374 911,375 915,376 920,381 920,383 923,387 922,390 916,391 916,392 911,393 909,395 906,395 906,396 903,396 903,397 898,398 896,400 893,400 891,402 888,402 889,405 894,410 899,411 899,412 908,412 908,411 916,408 918,410 918,412 913,414 913,415 907,416 907,417 895,416 895,415 891,414 890,412 888,412 886,410 886,408 884,407 884,405 882,403 882,399 881,399 881,391 882,391 884,383 891,376 893,376 895,374 899,374 899,373ZM956,373 959,373 959,378 958,379 952,379 952,380 948,381 942,389 942,415 937,416 936,415 936,375 941,374 941,383 942,383 945,378 947,378 948,376 950,376 952,374 956,374 956,373ZM984,373 993,373 993,374 999,375 1006,382 1006,384 1008,386 1007,390 1004,390 1002,392 999,392 997,394 991,395 989,397 986,397 984,399 981,399 979,401 974,402 975,406 978,409 980,409 984,412 993,412 993,411 998,410 999,408 1002,408 1002,410 1003,410 1002,413 1000,413 996,416 992,416 992,417 985,417 985,416 978,415 977,413 975,413 970,408 970,406 968,404 968,401 967,401 967,389 968,389 969,384 971,383 971,381 975,377 977,377 978,375 984,374 984,373ZM1041,373 1050,374 1057,381 1057,416 1052,416 1052,385 1051,385 1051,382 1046,378 1038,378 1038,379 1034,380 1033,382 1031,382 1031,384 1029,385 1028,390 1027,390 1027,416 1022,416 1022,374 1027,375 1027,382 1028,382 1028,380 1031,377 1033,377 1034,375 1037,375 1037,374 1041,374 1041,373ZM1147,373 1156,373 1156,374 1159,374 1159,375 1163,376 1168,381 1168,383 1170,384 1170,387 1171,387 1170,390 1167,390 1165,392 1159,393 1157,395 1154,395 1152,397 1149,397 1149,398 1146,398 1144,400 1141,400 1141,401 1137,402 1137,405 1142,410 1147,411 1147,412 1156,412 1156,411 1159,411 1162,408 1164,408 1166,410 1166,412 1159,415 1159,416 1155,416 1155,417 1148,417 1148,416 1144,416 1144,415 1139,414 1132,407 1131,402 1130,402 1130,398 1129,398 1129,392 1130,392 1130,388 1131,388 1131,385 1133,384 1133,382 1138,377 1140,377 1141,375 1144,375 1144,374 1147,374 1147,373ZM423,374 428,374 428,416 423,416 423,374ZM440,374 446,374 446,376 447,376 447,378 448,378 448,380 449,380 449,382 452,386 452,389 453,389 453,391 454,391 454,393 455,393 461,407 463,406 463,403 464,403 464,401 467,397 467,394 470,390 470,387 471,387 471,385 474,381 475,376 477,374 482,374 482,376 481,376 481,378 480,378 480,380 479,380 479,382 476,386 476,389 475,389 475,391 474,391 474,393 473,393 473,395 472,395 472,397 471,397 471,399 470,399 470,401 469,401 469,403 468,403 462,417 460,417 460,415 459,415 459,413 458,413 458,411 457,411 457,409 456,409 456,407 455,407 455,405 454,405 454,403 453,403 453,401 450,397 450,394 449,394 449,392 448,392 448,390 447,390 447,388 446,388 440,374ZM665,374 670,374 671,375 672,380 673,380 673,382 674,382 674,384 677,388 677,391 678,391 678,393 679,393 685,407 688,404 688,401 689,401 689,399 692,395 692,392 693,392 693,390 696,386 696,383 699,379 699,376 701,374 706,374 706,376 705,376 705,378 702,382 702,385 701,385 701,387 700,387 700,389 699,389 699,391 698,391 698,393 697,393 697,395 696,395 696,397 695,397 695,399 694,399 694,401 691,405 691,408 690,408 690,410 689,410 686,417 684,417 684,415 683,415 683,413 682,413 682,411 679,407 679,404 678,404 678,402 677,402 677,400 676,400 676,398 675,398 675,396 674,396 674,394 673,394 673,392 672,392 672,390 671,390 671,388 670,388 670,386 669,386 669,384 668,384 668,382 667,382 667,380 664,376 665,374ZM1076,374 1081,375 1081,416 1076,416 1076,374ZM542,378 537,380 536,382 534,382 534,384 531,386 530,398 560,387 555,380 553,380 551,378 542,378ZM626,378 620,380 616,384 616,386 614,387 613,399 614,399 614,402 617,405 617,407 620,408 621,410 623,410 625,412 635,412 635,411 638,411 639,409 641,409 644,406 644,404 646,402 646,399 647,399 647,390 646,390 644,384 641,381 639,381 635,378 626,378ZM731,378 726,380 721,385 720,390 719,390 719,398 722,398 724,396 727,396 729,394 732,394 734,392 737,392 739,390 742,390 742,389 745,389 745,388 749,387 748,384 743,379 741,379 741,378 731,378ZM899,378 892,381 890,383 890,385 888,386 887,393 886,393 887,398 892,397 894,395 897,395 899,393 902,393 904,391 907,391 907,390 910,390 910,389 916,387 915,383 912,380 910,380 908,378 899,378ZM984,378 979,380 974,385 973,390 972,390 972,398 975,398 977,396 980,396 982,394 985,394 987,392 990,392 992,390 995,390 995,389 998,389 998,388 1002,387 1001,384 996,379 994,379 994,378 984,378ZM1147,378 1142,380 1137,385 1137,387 1135,389 1135,398 1165,387 1160,380 1158,380 1156,378 1147,378Z"/></g></svg>